<?xml version="1.0" encoding="UTF-8" standalone="no"?>
<!-- Generator: Adobe Illustrator 23.0.3, SVG Export Plug-In . SVG Version: 6.00 Build 0)  -->

<svg
   x="0px"
   y="0px"
   viewBox="0 0 38.9 41.8"
   style="enable-background:new 0 0 38.9 41.8;"
   xml:space="preserve"
   version="1.1"
   id="svg28"
   sodipodi:docname="pdf-files.svg"
   inkscape:version="1.1.1 (3bf5ae0d25, 2021-09-20)"
   xmlns:inkscape="http://www.inkscape.org/namespaces/inkscape"
   xmlns:sodipodi="http://sodipodi.sourceforge.net/DTD/sodipodi-0.dtd"
   xmlns="http://www.w3.org/2000/svg"
   xmlns:svg="http://www.w3.org/2000/svg"><defs
   id="defs32" /><sodipodi:namedview
   id="namedview30"
   pagecolor="#ffffff"
   bordercolor="#666666"
   borderopacity="1.0"
   inkscape:pageshadow="2"
   inkscape:pageopacity="0.0"
   inkscape:pagecheckerboard="0"
   showgrid="false"
   inkscape:zoom="4.9760767"
   inkscape:cx="-30.043749"
   inkscape:cy="56.168748"
   inkscape:window-width="1920"
   inkscape:window-height="1017"
   inkscape:window-x="-8"
   inkscape:window-y="-8"
   inkscape:window-maximized="1"
   inkscape:current-layer="svg28" />
<style
   type="text/css"
   id="style2">
	.sharing-files-0{fill:none;stroke:#1E2022;}
	.sharing-files-1{fill:#1E2022;}
</style>
<path
   class="sharing-files-0 fill-none stroke-dark"
   stroke-width="1.5"
   stroke-miterlimit="10"
   d="M31.6,31v5.6c0,1.3-1,2.3-2.3,2.3H5.5c-1.3,0-2.3-1-2.3-2.3V3.1c0-1.3,1-2.3,2.3-2.3  c0,0,18.1,0,18.1,0l8,8v4.9"
   id="path4" />
<path
   class="sharing-files-1 fill-dark"
   d="M24.5,9c-0.7,0-1.2-0.6-1.2-1.2V0.7L31.6,9H24.5z"
   id="path6" />
<line
   class="sharing-files-0 fill-none stroke-dark"
   stroke-width="1.3"
   stroke-miterlimit="10"
   x1="22.5"
   y1="12.6"
   x2="9.3"
   y2="12.6"
   id="line8" />
<line
   class="sharing-files-0 fill-none stroke-dark"
   stroke-width="1.3"
   stroke-miterlimit="10"
   x1="22.5"
   y1="17.1"
   x2="9.3"
   y2="17.1"
   id="line10" />
<line
   class="sharing-files-0 fill-none stroke-dark"
   stroke-width="1.3"
   stroke-miterlimit="10"
   x1="22.5"
   y1="21.6"
   x2="9.3"
   y2="21.6"
   id="line12" />
<line
   class="sharing-files-0 fill-none stroke-dark"
   stroke-width="1.3"
   stroke-miterlimit="10"
   x1="22.5"
   y1="26.3"
   x2="9.3"
   y2="26.3"
   id="line14" />





<path
   class="sharing-files-1 fill-dark"
   opacity=".2"
   d="M3.5,36.7V6.9c0-0.9-0.7-1.6-1.6-1.6H1.6C0.7,5.3,0,6,0,6.9v33.3c0,0.9,0.7,1.6,1.6,1.6h1.9h22.6  c0.9,0,1.6-0.7,1.6-1.6v-0.3c0-0.9-0.7-1.6-1.6-1.6h-21C4.2,38.3,3.5,37.6,3.5,36.7z"
   id="path26" />
<text
   xml:space="preserve"
   style="font-style:normal;font-weight:normal;font-size:6.29785px;line-height:1.25;font-family:sans-serif;fill:#e2574c;fill-opacity:1;stroke:#000000;stroke-width:0.018;stroke-opacity:1;stroke-miterlimit:4;stroke-dasharray:none"
   x="25.402559"
   y="23.165052"
   id="text5777"><tspan
     sodipodi:role="line"
     id="tspan5775"
     x="25.402559"
     y="23.165052"
     style="stroke-width:0.018;fill:#e2574c;fill-opacity:1;stroke:#000000;stroke-opacity:1;stroke-miterlimit:4;stroke-dasharray:none">PDF</tspan></text><path
   style="fill:#e2574c;fill-opacity:1;stroke:#000000;stroke-width:0.000904327"
   d="M 5.037271,39.588172 C 3.7916204,39.376342 2.7575419,38.389525 2.5413656,37.206337 2.5029281,36.995959 2.486899,31.878902 2.486899,19.818641 2.486899,2.9643158 2.4882653,2.7237118 2.5861461,2.3410015 2.8554714,1.2879497 3.6320025,0.49978061 4.7260898,0.16898621 5.0071858,0.0839976 5.5567715,0.07801299 14.442608,0.06317998 l 9.41857,-0.01572229 4.234254,4.23403221 4.234255,4.2340321 v 2.574931 2.574931 h -0.727984 -0.727984 l -0.01306,-2.323617 -0.01306,-2.3236181 -3.315866,-0.02512 C 24.254123,8.9681989 24.213549,8.9666579 24.014906,8.8594688 23.800746,8.7439069 23.609767,8.5584893 23.456206,8.317036 23.366946,8.1766809 23.360406,7.987234 23.336661,4.8504496 L 23.311538,1.5323317 H 14.218029 5.1245191 L 4.848197,1.6624625 C 4.4748593,1.8382816 4.2937441,2.0011069 4.1173979,2.3194619 L 3.9689903,2.5873798 V 19.844952 37.102523 l 0.1133493,0.212125 c 0.1777744,0.332692 0.3970187,0.550774 0.7064932,0.702748 l 0.285446,0.140175 H 17.383173 29.692067 l 0.280667,-0.13162 c 0.341821,-0.160299 0.594894,-0.404948 0.754705,-0.729585 l 0.120157,-0.244083 0.01407,-3.001863 0.01408,-3.001863 h 0.729155 0.729155 l -0.01502,3.052103 -0.01502,3.052104 -0.136756,0.401923 c -0.3277,0.963107 -1.004569,1.612927 -2.048141,1.96629 -0.266306,0.09017 -0.72158,0.09382 -12.560096,0.100614 -6.756075,0.0039 -12.3908599,-0.01116 -12.521743,-0.03342 z"
   id="path12217" /><path
   style="fill:#e2574c;fill-opacity:1;stroke:#000000;stroke-width:0.000904327"
   d="m 9.3195912,12.585216 v -0.628005 h 6.5814898 6.581491 v 0.628005 0.628005 H 15.901081 9.3195912 Z"
   id="path12256" /><path
   style="fill:#e2574c;fill-opacity:1;stroke:#000000;stroke-width:0.000904327"
   d="m 9.3195912,17.106851 v -0.628005 h 6.5814898 6.581491 v 0.628005 0.628004 H 15.901081 9.3195912 Z"
   id="path12295" /><path
   style="fill:#e2574c;fill-opacity:1;stroke:#000000;stroke-width:0.000904327"
   d="M 9.3195912,21.578245 V 20.95024 h 6.5814898 6.581491 v 0.628005 0.628005 H 15.901081 9.3195912 Z"
   id="path12334" /><path
   style="fill:#e2574c;fill-opacity:1;stroke:#000000;stroke-width:0.000904327"
   d="m 9.3195912,26.300841 v -0.628005 h 6.5814898 6.581491 v 0.628005 0.628005 H 15.901081 9.3195912 Z"
   id="path12373" /></svg>
