<?xml version="1.0" encoding="UTF-8" standalone="no"?>
<!-- Generator: Adobe Illustrator 23.0.3, SVG Export Plug-In . SVG Version: 6.00 Build 0)  -->

<svg
   x="0px"
   y="0px"
   viewBox="0 0 38.9 41.8"
   style="enable-background:new 0 0 38.9 41.8;"
   xml:space="preserve"
   version="1.1"
   id="svg28"
   sodipodi:docname="word-files.svg"
   inkscape:version="1.1.1 (3bf5ae0d25, 2021-09-20)"
   xmlns:inkscape="http://www.inkscape.org/namespaces/inkscape"
   xmlns:sodipodi="http://sodipodi.sourceforge.net/DTD/sodipodi-0.dtd"
   xmlns="http://www.w3.org/2000/svg"
   xmlns:svg="http://www.w3.org/2000/svg"><defs
   id="defs32" /><sodipodi:namedview
   id="namedview30"
   pagecolor="#ffffff"
   bordercolor="#666666"
   borderopacity="1.0"
   inkscape:pageshadow="2"
   inkscape:pageopacity="0.0"
   inkscape:pagecheckerboard="0"
   showgrid="false"
   inkscape:zoom="4.9760768"
   inkscape:cx="-49.737979"
   inkscape:cy="40.091825"
   inkscape:window-width="1920"
   inkscape:window-height="1017"
   inkscape:window-x="-8"
   inkscape:window-y="-8"
   inkscape:window-maximized="1"
   inkscape:current-layer="svg28" />
<style
   type="text/css"
   id="style2">
	.sharing-files-0{fill:none;stroke:#1E2022;}
	.sharing-files-1{fill:#1E2022;}
</style>
<path
   class="sharing-files-0 fill-none stroke-dark"
   stroke-width="1.5"
   stroke-miterlimit="10"
   d="M31.6,31v5.6c0,1.3-1,2.3-2.3,2.3H5.5c-1.3,0-2.3-1-2.3-2.3V3.1c0-1.3,1-2.3,2.3-2.3  c0,0,18.1,0,18.1,0l8,8v4.9"
   id="path4" />
<path
   class="sharing-files-1 fill-dark"
   d="M24.5,9c-0.7,0-1.2-0.6-1.2-1.2V0.7L31.6,9H24.5z"
   id="path6" />
<line
   class="sharing-files-0 fill-none stroke-dark"
   stroke-width="1.3"
   stroke-miterlimit="10"
   x1="22.5"
   y1="12.6"
   x2="9.3"
   y2="12.6"
   id="line8" />
<line
   class="sharing-files-0 fill-none stroke-dark"
   stroke-width="1.3"
   stroke-miterlimit="10"
   x1="22.5"
   y1="17.1"
   x2="9.3"
   y2="17.1"
   id="line10" />
<line
   class="sharing-files-0 fill-none stroke-dark"
   stroke-width="1.3"
   stroke-miterlimit="10"
   x1="22.5"
   y1="21.6"
   x2="9.3"
   y2="21.6"
   id="line12" />
<line
   class="sharing-files-0 fill-none stroke-dark"
   stroke-width="1.3"
   stroke-miterlimit="10"
   x1="22.5"
   y1="26.3"
   x2="9.3"
   y2="26.3"
   id="line14" />





<path
   class="sharing-files-1 fill-dark"
   opacity=".2"
   d="M3.5,36.7V6.9c0-0.9-0.7-1.6-1.6-1.6H1.6C0.7,5.3,0,6,0,6.9v33.3c0,0.9,0.7,1.6,1.6,1.6h1.9h22.6  c0.9,0,1.6-0.7,1.6-1.6v-0.3c0-0.9-0.7-1.6-1.6-1.6h-21C4.2,38.3,3.5,37.6,3.5,36.7z"
   id="path26" />
<text
   xml:space="preserve"
   style="font-style:normal;font-weight:normal;font-size:16.6208px;line-height:1.25;font-family:sans-serif;fill:#377dff;fill-opacity:1;stroke:#000000;stroke-width:0.018;stroke-opacity:1;stroke-miterlimit:4;stroke-dasharray:none"
   x="24.594725"
   y="25.069952"
   id="text7818"><tspan
     sodipodi:role="line"
     id="tspan7816"
     x="24.594725"
     y="25.069952"
     style="stroke-width:0.018;fill:#377dff;fill-opacity:1;stroke:#000000;stroke-opacity:1;stroke-miterlimit:4;stroke-dasharray:none">w</tspan></text><path
   style="fill:#377dff;stroke:#000000;stroke-width:0.018;fill-opacity:1;stroke-miterlimit:4;stroke-dasharray:none"
   d="M 5.0372709,39.588171 C 3.7916203,39.376342 2.7575418,38.389524 2.5413655,37.206336 2.502928,36.995958 2.4868989,31.878901 2.4868989,19.81864 2.4868989,2.9643157 2.4882652,2.7237118 2.586146,2.3410014 2.8554713,1.2879496 3.6320024,0.4997806 4.7260897,0.16898621 5.0071857,0.08399759 5.5567714,0.07801298 14.442608,0.06317998 l 9.418569,-0.01572229 4.234255,4.23403211 4.234254,4.234032 v 2.5749312 2.574931 h -0.727983 -0.727985 l -0.01306,-2.323618 -0.01306,-2.3236173 -3.315865,-0.02512 c -3.277611,-0.02483 -3.318184,-0.026371 -3.516827,-0.13356 -0.214161,-0.115562 -0.405139,-0.3009796 -0.558701,-0.5424329 -0.08926,-0.140355 -0.0958,-0.329802 -0.119544,-3.4665863 L 23.311538,1.5323317 H 14.218028 5.124519 L 4.8481969,1.6624625 C 4.4748592,1.8382816 4.293744,2.0011069 4.1173978,2.3194619 L 3.9689902,2.5873797 V 19.844951 37.102523 l 0.1133493,0.212125 c 0.1777744,0.332691 0.3970187,0.550773 0.7064932,0.702747 l 0.2854459,0.140176 H 17.383172 29.692066 l 0.280667,-0.131621 c 0.341821,-0.160299 0.594894,-0.404948 0.754706,-0.729585 l 0.120156,-0.244083 0.01407,-3.001863 0.01407,-3.001863 h 0.729155 0.729156 l -0.01502,3.052104 -0.01502,3.052103 -0.136755,0.401923 c -0.327701,0.963108 -1.00457,1.612927 -2.048142,1.966291 -0.266306,0.09017 -0.72158,0.09382 -12.560095,0.100613 -6.756076,0.0039 -12.39086,-0.01116 -12.5217431,-0.03342 z"
   id="path15336" /><path
   style="fill:#377dff;stroke:#000000;stroke-width:0.018;fill-opacity:1;stroke-miterlimit:4;stroke-dasharray:none"
   d="m 9.319591,12.585216 v -0.628005 h 6.58149 6.58149 v 0.628005 0.628005 h -6.58149 -6.58149 z"
   id="path15375" /><path
   style="fill:#377dff;stroke:#000000;stroke-width:0.018;fill-opacity:1;stroke-miterlimit:4;stroke-dasharray:none"
   d="m 9.319591,17.10685 v -0.628004 h 6.58149 6.58149 v 0.628004 0.628005 h -6.58149 -6.58149 z"
   id="path15414" /><path
   style="fill:#377dff;stroke:#000000;stroke-width:0.018;fill-opacity:1;stroke-miterlimit:4;stroke-dasharray:none"
   d="M 9.319591,21.578244 V 20.95024 h 6.58149 6.58149 v 0.628004 0.628005 h -6.58149 -6.58149 z"
   id="path15453" /><path
   style="fill:#377dff;stroke:#000000;stroke-width:0.018;fill-opacity:1;stroke-miterlimit:4;stroke-dasharray:none"
   d="m 9.319591,26.30084 v -0.628004 h 6.58149 6.58149 v 0.628004 0.628005 h -6.58149 -6.58149 z"
   id="path15492" /></svg>
